<?xml version="1.0" standalone="no"?>
<!DOCTYPE svg PUBLIC "-//W3C//DTD SVG 20010904//EN"
 "http://www.w3.org/TR/2001/REC-SVG-20010904/DTD/svg10.dtd">
<svg version="1.0" xmlns="http://www.w3.org/2000/svg"
 width="256.000000pt" height="256.000000pt" viewBox="0 0 256.000000 256.000000"
 preserveAspectRatio="xMidYMid meet">

<g transform="translate(0.000000,256.000000) scale(0.100000,-0.100000)"
fill="#000000" stroke="none">
<path d="M1240 2549 c-45 -10 -95 -67 -104 -117 -3 -20 -6 -254 -6 -519 l0
-482 -507 -3 c-467 -3 -511 -4 -541 -21 -96 -53 -96 -201 0 -254 30 -17 74
-18 540 -21 l507 -3 3 -514 c3 -501 4 -514 24 -541 37 -50 68 -66 124 -66 56
0 87 16 124 66 20 27 21 40 24 541 l3 514 514 3 c501 3 514 4 541 24 49 36 66
68 66 123 0 55 -29 107 -75 133 -17 10 -144 14 -534 16 l-512 3 -3 513 -3 513
-28 36 c-41 55 -89 72 -157 56z"/>
</g>
</svg>
