<?xml version="1.0" standalone="no"?>
<!DOCTYPE svg PUBLIC "-//W3C//DTD SVG 20010904//EN"
 "http://www.w3.org/TR/2001/REC-SVG-20010904/DTD/svg10.dtd">
<svg version="1.0" xmlns="http://www.w3.org/2000/svg"
 width="254.000000pt" height="188.000000pt" viewBox="0 0 254.000000 188.000000"
 preserveAspectRatio="xMidYMid meet">

<g transform="translate(0.000000,188.000000) scale(0.100000,-0.100000)"
fill="#000000" stroke="none">
<path d="M2325 1861 c-16 -10 -365 -355 -775 -765 l-745 -746 -290 289 c-306
304 -327 320 -398 306 -44 -10 -75 -30 -97 -68 -25 -40 -26 -113 -4 -147 27
-41 687 -700 716 -716 32 -17 101 -18 131 -3 31 16 1645 1628 1663 1661 32 60
7 155 -50 189 -41 25 -112 25 -151 0z"/>
</g>
</svg>
