<?xml version="1.0" standalone="no"?>
<!DOCTYPE svg PUBLIC "-//W3C//DTD SVG 20010904//EN"
 "http://www.w3.org/TR/2001/REC-SVG-20010904/DTD/svg10.dtd">
<svg version="1.0" xmlns="http://www.w3.org/2000/svg"
 width="256.000000pt" height="256.000000pt" viewBox="0 0 256.000000 256.000000"
 preserveAspectRatio="xMidYMid meet">

<g transform="translate(0.000000,256.000000) scale(0.100000,-0.100000)"
fill="#000000" stroke="none">
<path d="M115 2531 c-48 -22 -69 -44 -90 -94 -19 -46 -19 -98 0 -145 11 -25
169 -190 503 -525 l487 -487 -487 -488 c-334 -334 -492 -499 -503 -524 -28
-69 -9 -165 41 -210 52 -46 136 -60 202 -33 25 11 189 167 524 503 l488 487
487 -487 c335 -334 500 -492 525 -503 115 -47 242 27 255 149 11 92 17 84
-510 614 l-492 492 487 488 c334 334 492 499 503 524 27 66 13 150 -33 202
-45 50 -141 69 -210 41 -25 -11 -190 -169 -524 -503 l-488 -487 -487 487
c-335 334 -500 492 -525 503 -49 20 -104 19 -153 -4z"/>
</g>
</svg>
