<?xml version="1.0" standalone="no"?>
<!DOCTYPE svg PUBLIC "-//W3C//DTD SVG 20010904//EN"
 "http://www.w3.org/TR/2001/REC-SVG-20010904/DTD/svg10.dtd">
<svg version="1.0" xmlns="http://www.w3.org/2000/svg"
 width="256.000000pt" height="256.000000pt" viewBox="0 0 256.000000 256.000000"
 preserveAspectRatio="xMidYMid meet">

<g transform="translate(0.000000,256.000000) scale(0.100000,-0.100000)"
fill="#000000" stroke="none">
<path d="M758 2545 c-38 -21 -54 -75 -34 -113 8 -16 23 -33 33 -38 10 -5 353
-11 763 -14 l745 -5 38 -29 c21 -16 47 -47 58 -68 19 -37 19 -63 17 -1012 l-3
-974 -31 -39 c-17 -21 -46 -47 -65 -58 -33 -19 -55 -20 -775 -23 l-741 -2 -23
-26 c-34 -36 -33 -89 4 -120 l27 -24 727 0 c787 0 802 1 882 54 90 59 153 154
170 255 7 46 10 358 8 1011 l-3 945 -24 60 c-33 82 -124 173 -206 206 l-60 24
-740 2 c-635 2 -744 1 -767 -12z"/>
<path d="M1285 1605 c-28 -28 -32 -70 -10 -102 8 -11 46 -44 85 -73 38 -28 70
-56 70 -61 0 -5 -284 -9 -688 -9 l-689 0 -20 -22 c-11 -13 -23 -31 -26 -40 -9
-25 12 -77 37 -91 16 -9 191 -13 710 -17 l688 -5 -53 -37 c-92 -63 -129 -102
-129 -136 0 -61 71 -108 122 -81 45 24 376 278 392 301 17 24 20 55 9 83 -3
10 -96 84 -205 166 -168 126 -204 149 -234 149 -24 0 -43 -8 -59 -25z"/>
</g>
</svg>
